<svg width="55" height="36" viewBox="0 0 55 36" fill="none" xmlns="http://www.w3.org/2000/svg">
<path d="M23.7493 1.61247C23.5812 2.9445 23.9512 4.76727 25.9695 12.409L28.3915 21.593L29.8717 21.8384C30.6454 21.9435 31.3854 21.9786 31.4863 21.9085C31.5536 21.8033 31.7218 20.962 31.8227 20.0156C31.9909 18.6134 31.6209 16.7556 29.7707 9.53457C28.5597 4.69719 27.4496 0.666016 27.3151 0.560858C27.1805 0.420645 26.3732 0.245374 25.5322 0.17527L23.9512 0L23.7493 1.61247Z" fill="#4B40BB"/>
<path d="M8.3425 5.32811C4.13763 6.90552 0.571865 8.34273 0.370029 8.48294C0.168196 8.58811 0 9.74486 0 11.0419V13.3904L2.79205 14.442L5.55046 15.4937L5.48318 20.962L5.4159 26.4304L16.9205 31.1977C23.2447 33.8267 28.7615 36 29.1315 36C29.5352 36 34.6147 33.9669 40.4006 31.4781L50.9633 26.9562L51.1314 21.0672C51.3335 14.4771 51.0644 15.1782 53.991 13.8461C54.9665 13.3904 55 13.3203 55 10.9717V8.55303L46.9267 5.46832C39.7613 2.69909 38.5843 2.34856 36.5995 2.34856H34.3119V3.99607C34.3119 4.94252 34.4465 5.8539 34.5811 6.06423C34.7156 6.23949 37.5078 7.43132 40.8042 8.65819C44.101 9.88507 46.6576 10.9717 46.523 11.1119C46.3885 11.2522 43.8319 12.3038 40.8717 13.3904C33.7737 16.0545 34.2446 15.704 34.3792 17.8773L34.4801 19.7001L36.3304 19.8052C37.7769 19.8753 38.9205 19.6299 41.477 18.6484C43.2937 17.9824 44.9084 17.4216 45.0765 17.4216C45.4801 17.4216 45.5137 22.294 45.1439 22.925C45.0094 23.1353 41.3425 24.8529 37.0031 26.7108L29.0979 30.111L20.3517 26.4654L11.6055 22.8198L11.5046 20.2609C11.4037 17.9123 11.471 17.702 12.0092 17.9474C14.7339 19.1042 16.5168 19.5248 18.5688 19.5248H20.8563V17.8072C20.8563 16.8607 20.6545 15.9494 20.4526 15.7741C20.2171 15.5637 18.1988 14.7575 15.9786 13.9162C8.67889 11.2171 8.27522 11.0419 8.77982 10.7614C9.04893 10.5862 11.6728 9.56961 14.633 8.48294C17.5933 7.36123 20.2171 6.30961 20.4526 6.09928C20.6545 5.92402 20.8563 5.01261 20.8563 4.06619V2.34856L18.4343 2.38361C16.2141 2.38361 15.2385 2.66404 8.3425 5.32811Z" fill="#4B40BB"/>
</svg>
